<?xml version="1.0" encoding="UTF-8" standalone="no"?>
<!-- Created with Inkscape (http://www.inkscape.org/) -->

<svg
   width="1000"
   height="350"
   viewBox="0 0 264.58333 92.604558"
   version="1.1"
   id="svg938"
   xml:space="preserve"
   inkscape:version="1.2.2 (732a01da63, 2022-12-09)"
   sodipodi:docname="sanctus.svg"
   xmlns:inkscape="http://www.inkscape.org/namespaces/inkscape"
   xmlns:sodipodi="http://sodipodi.sourceforge.net/DTD/sodipodi-0.dtd"
   xmlns="http://www.w3.org/2000/svg"
   xmlns:svg="http://www.w3.org/2000/svg"><sodipodi:namedview
     id="namedview940"
     pagecolor="#ffffff"
     bordercolor="#000000"
     borderopacity="0.25"
     inkscape:showpageshadow="2"
     inkscape:pageopacity="0.0"
     inkscape:pagecheckerboard="0"
     inkscape:deskcolor="#d1d1d1"
     inkscape:document-units="mm"
     showgrid="false"
     inkscape:zoom="0.4204826"
     inkscape:cx="808.59469"
     inkscape:cy="393.59536"
     inkscape:window-width="1128"
     inkscape:window-height="730"
     inkscape:window-x="-6"
     inkscape:window-y="-6"
     inkscape:window-maximized="1"
     inkscape:current-layer="layer1" /><defs
     id="defs935" /><g
     inkscape:label="Layer 1"
     inkscape:groupmode="layer"
     id="layer1"><path
       style="fill:#000000;stroke-width:0.276942"
       d="M 14.000371,83.107942 C 11.78266,82.805744 7.8627755,81.725032 7.4317289,81.296973 6.9633657,80.831841 6.6350415,79.404963 6.1614147,75.776268 5.8704449,73.547004 6.0171081,72.783266 6.735208,72.788278 c 0.3670671,0.0025 0.6253668,0.405181 0.9553984,1.489201 0.8762855,2.878228 1.8142828,4.060415 4.1550456,5.236735 1.176732,0.591369 1.930813,0.760129 3.537628,0.791747 1.881299,0.03702 2.156443,-0.03486 3.493822,-0.913079 1.991393,-1.307672 2.819666,-2.727694 3.003289,-5.148891 C 22.068579,71.762552 21.54066,70.269018 19.834504,68.456002 18.541206,67.0817 17.729907,66.501536 13.203889,63.714453 8.6752018,60.925723 6.7728652,58.217812 6.4639658,54.120414 6.1175504,49.525408 8.3192846,45.541443 12.353575,43.463374 c 2.652285,-1.366198 10.297956,-0.739898 10.713867,0.877635 0.315742,1.227956 0.417394,6.770341 0.127531,6.95374 -0.500459,0.316649 -0.9878,-0.331431 -1.606872,-2.136876 -0.763656,-2.22709 -1.977437,-3.500235 -3.777904,-3.962655 -2.131632,-0.547486 -3.472935,-0.224017 -5.092069,1.227993 -1.757413,1.57602 -2.121884,2.466891 -1.958945,4.788237 0.232139,3.307329 1.69245,5.062769 6.886214,8.277941 7.786506,4.820188 9.631655,7.213956 9.599523,12.453724 -0.01241,2.012177 -0.122234,2.49125 -1.005853,4.384638 -0.545597,1.169099 -1.384742,2.584154 -1.864762,3.144558 -1.114401,1.301023 -3.385336,2.816233 -4.867656,3.247816 -1.315419,0.382977 -4.101665,0.579211 -5.506281,0.387817 z m 99.331969,0.70048 c -0.0966,-0.101966 0.006,-0.449864 0.22609,-0.773099 0.55116,-0.805912 0.50868,-1.408274 -0.1432,-2.030231 -1.1377,-1.085489 -0.0611,-2.604199 1.21882,-1.719213 0.5546,0.383502 0.7015,0.714475 0.69554,1.567397 -0.0116,1.50563 -1.4092,3.575127 -1.99725,2.955146 z m 101.93754,-0.793581 c -3e-5,-0.146141 0.12463,-0.34339 0.27467,-0.438334 0.41352,-0.261629 0.3349,-1.435697 -0.12303,-1.836374 -0.5384,-0.471138 -0.51371,-1.872263 0.0368,-2.087422 0.82069,-0.320791 1.18924,-0.159083 1.61282,0.707615 0.49812,1.019241 0.32816,2.159284 -0.4786,3.210237 -0.53931,0.702573 -1.32635,0.966913 -1.32269,0.444279 z M 84.535071,81.512675 c -1.709443,-0.545686 -2.690669,-2.218768 -2.676368,-4.563413 0.01729,-2.83357 1.826803,-4.746796 4.061869,-4.294651 1.282952,0.259531 2.56628,1.403745 2.560144,2.2826 -0.004,0.570536 -0.138797,0.679888 -0.8322,0.675046 -0.634891,-0.0044 -0.933741,-0.203242 -1.284222,-0.854335 -0.539175,-1.001643 -1.319833,-1.105143 -2.174983,-0.288352 -0.656294,0.626857 -0.752833,1.537612 -0.333962,3.150666 0.482612,1.858517 2.38449,2.800436 3.659311,1.812291 0.725883,-0.562647 1.209961,-0.525937 1.20565,0.09142 -0.0044,0.632824 -0.971125,1.595828 -2.000825,1.99316 -0.876418,0.338179 -1.112738,0.337699 -2.184415,-0.0044 z M 60.528406,81.178243 c -0.461504,-0.214106 -0.422972,-1.240084 0.04646,-1.236809 0.787393,0.0056 1.581818,-1.02368 1.956174,-2.534245 0.210459,-0.84922 0.742712,-2.993865 1.182778,-4.765895 1.142369,-4.599968 2.000346,-4.928558 3.181067,-1.218294 0.387474,1.217579 1.209194,3.551587 1.82604,5.186673 1.034385,2.741841 1.203176,3.013394 2.171953,3.493989 0.610325,0.302779 0.94884,0.625239 0.807976,0.769649 -0.289202,0.296499 -4.804214,0.396942 -5.234129,0.116452 -0.487519,-0.318081 -0.341651,-0.717623 0.385496,-1.055877 1.512632,-0.703634 0.376641,-2.48747 -1.592844,-2.501217 -1.911304,-0.01326 -2.768779,1.491905 -1.525578,2.678064 0.300309,0.286534 0.450807,0.614119 0.33444,0.727982 -0.276984,0.271034 -3.103166,0.542099 -3.539822,0.339537 z m 5.311166,-5.315861 c 0.236244,-0.626537 -0.398743,-2.723474 -0.785088,-2.592599 -0.389536,0.131958 -0.865034,2.025214 -0.654811,2.607245 0.201563,0.558053 1.227892,0.547625 1.439899,-0.01462 z m 6.981954,5.012203 c -0.09108,-0.15567 0.0268,-0.564346 0.261932,-0.908142 0.609513,-0.891227 0.561025,-3.458068 -0.09423,-4.98856 -0.425097,-0.992903 -0.464645,-1.324453 -0.197361,-1.654528 0.587341,-0.725313 1.575588,-0.949269 2.545565,-0.576863 0.713264,0.273841 0.984868,0.27039 1.322464,-0.01683 0.275855,-0.234678 0.758606,-0.293923 1.376477,-0.168929 1.394388,0.282082 1.821514,1.354891 1.951405,4.901346 0.122826,3.353589 -0.0481,3.744064 -1.633862,3.732995 -0.852252,-0.006 -1.052451,-0.109311 -1.049431,-0.541879 0.002,-0.293985 0.187574,-0.606395 0.412274,-0.694231 0.304864,-0.119155 0.411774,-0.623049 0.421288,-1.985605 0.02015,-2.893682 -0.579016,-3.826196 -2.092439,-3.256238 -0.556856,0.209708 -0.603858,0.408264 -0.619272,2.616031 -0.01205,1.747157 0.092,2.503671 0.387771,2.815506 0.222447,0.234517 0.403501,0.562541 0.402339,0.728945 -0.0028,0.38726 -3.168218,0.384431 -3.394908,-0.0029 z m 18.688763,0.07494 c -0.82326,-0.420825 -0.946215,-0.863507 -1.037931,-3.736857 -0.05168,-1.618932 -0.225216,-2.747971 -0.487299,-3.17032 -0.223877,-0.360785 -0.406313,-0.760831 -0.40542,-0.888988 0.002,-0.287794 2.019528,-2.596609 2.267486,-2.594879 0.09881,6.55e-4 0.279484,0.414061 0.401504,0.918602 0.18846,0.779267 0.374541,0.944254 1.236207,1.096058 1.855452,0.326896 1.970038,1.383481 0.149888,1.382133 -1.068936,-5.34e-4 -1.348036,0.505495 -1.361752,2.470155 -0.01632,2.326243 0.273038,2.891915 1.483204,2.900363 0.750837,0.0052 0.940287,0.117501 0.937231,0.555308 -0.008,1.147862 -1.830815,1.759691 -3.183123,1.068423 z m 9.859921,-0.02541 c -0.48518,-0.266074 -0.92203,-0.283796 -1.715456,-0.06956 -2.383298,0.643476 -3.19644,-0.317285 -3.367244,-3.978516 -0.08219,-1.762908 -0.232841,-2.471777 -0.621226,-2.924298 -0.504077,-0.587307 -0.503848,-0.603931 0.01409,-0.991718 0.712809,-0.534072 2.222925,-0.500632 2.423128,0.05365 0.08656,0.239753 0.08517,1.351638 -0.0031,2.47086 -0.221962,2.81174 0.05414,3.705648 1.182681,3.828511 1.442425,0.157062 1.749105,-0.329057 1.611545,-2.554533 -0.0898,-1.450359 -0.26151,-2.088186 -0.69328,-2.572753 -0.802743,-0.900924 -0.715297,-1.260893 0.35514,-1.461924 1.8917,-0.355261 1.90942,-0.326494 2.1054,3.419899 0.0973,1.86267 0.29915,3.60817 0.44824,3.878907 0.14911,0.270736 0.27031,0.606221 0.26932,0.745526 -0.003,0.430014 -1.32229,0.532452 -2.00878,0.155972 z m 4.85779,0.27133 c -1.13759,-0.201185 -1.48979,-0.590624 -1.48246,-1.63926 0.008,-1.317641 0.27292,-1.400658 1.25651,-0.395597 0.64887,0.663057 1.14444,0.905591 1.91264,0.936075 0.93364,0.03702 1.03737,-0.02916 1.0418,-0.664764 0.004,-0.585696 -0.30623,-0.876458 -1.8218,-1.707039 -1.43676,-0.7874 -1.88588,-1.191364 -2.10388,-1.892363 -0.36585,-1.176532 -0.0754,-2.233172 0.81014,-2.947078 0.63048,-0.508301 0.94002,-0.554699 2.48452,-0.372401 1.81748,0.214516 2.15883,0.441729 2.15902,1.437129 3e-5,1.162833 -0.55419,1.274169 -1.66363,0.334031 -0.91401,-0.774554 -1.12523,-0.843772 -1.72433,-0.565082 -1.09055,0.507287 -0.83186,1.138812 0.78792,1.923707 2.57536,1.247901 3.57734,3.362778 2.33696,4.932577 -0.51965,0.657678 -2.25613,0.9273 -3.99341,0.620065 z m 52.47153,-1.040956 c -0.22384,-1.474831 -0.20097,-2.917707 0.0462,-2.918772 0.11213,-8.7e-5 0.69299,0.591462 1.29103,1.315429 0.97223,1.177015 1.23369,1.331953 2.47071,1.464252 1.15493,0.123534 1.479,0.05002 1.96229,-0.445542 1.3476,-1.381587 0.41562,-2.881408 -2.46065,-3.959925 -1.04873,-0.393251 -2.08538,-1.022911 -2.59285,-1.574915 -0.72162,-0.784967 -0.84403,-1.129357 -0.83549,-2.350651 0.017,-2.549548 1.67238,-3.679857 4.29165,-2.931795 0.89694,0.256161 1.28865,0.254904 1.69584,-0.0054 0.29123,-0.186207 0.61029,-0.253371 0.70907,-0.149242 0.31434,0.331408 0.65114,2.860182 0.4134,3.103912 -0.12569,0.128851 -0.68271,-0.21738 -1.23786,-0.769383 -0.84672,-0.841892 -1.20616,-1.005018 -2.23014,-1.012168 -3.29589,-0.02305 -3.02193,2.242918 0.42747,3.535581 2.91712,1.093189 4.05052,2.323 4.03616,4.379531 -0.008,0.927841 -0.19607,1.370932 -0.94523,2.208923 -1.00783,1.127393 -0.82334,1.0961 -4.9838,0.84529 -0.41064,-0.02468 -1.00468,0.0433 -1.3201,0.151165 -0.50154,0.171553 -0.59411,0.06034 -0.73777,-0.886262 z m 9.66044,0.81202 c -0.91423,-0.38944 -1.29442,-1.476202 -0.87626,-2.504798 0.48258,-1.187162 1.19299,-1.756146 2.66354,-2.133369 1.54071,-0.395223 1.9505,-0.922106 1.51142,-1.943302 -0.38023,-0.884375 -1.14315,-0.946297 -1.84626,-0.149855 -0.71091,0.805257 -1.35882,1.12412 -1.86528,0.917951 -0.61743,-0.251318 -0.5166,-1.094231 0.23843,-1.99396 0.58537,-0.697543 0.83781,-0.781752 2.31248,-0.77146 1.44625,0.01003 1.74929,0.110816 2.39852,0.797196 0.71335,0.754187 0.73942,0.885946 0.65142,3.291177 -0.0922,2.517488 0.0948,3.139798 1.04461,3.476365 0.18268,0.06468 0.2461,0.323057 0.14506,0.591009 -0.19219,0.509701 -1.50834,0.613444 -2.50335,0.197318 -0.31916,-0.133492 -0.97513,-0.072 -1.59699,0.149885 -1.20356,0.429297 -1.42994,0.436848 -2.27734,0.07591 z m 2.93373,-1.66418 c 0.64428,-0.660559 0.71218,-1.483356 0.1621,-1.964705 -0.31134,-0.27243 -0.5624,-0.240653 -1.21485,0.15379 -1.04789,0.633531 -1.24749,1.175531 -0.67746,1.839677 0.58144,0.677438 1.04893,0.66968 1.73018,-0.02882 z m 5.7612,1.530268 c -1.00518,-0.13684 -1.0536,-0.268243 -0.43312,-1.175483 0.63098,-0.922577 0.43381,-4.584834 -0.29238,-5.43093 -0.50261,-0.585599 -0.49923,-0.602345 0.2549,-1.267347 0.8351,-0.736366 1.53668,-0.851871 2.02801,-0.333881 0.2419,0.255037 0.48113,0.256708 1.01772,0.0072 0.93899,-0.436796 2.05489,-0.389659 2.68519,0.113442 0.40972,0.327018 0.56173,0.978559 0.74034,3.173038 0.12365,1.518821 0.33356,3.130355 0.46652,3.581144 0.33497,1.135448 0.15248,1.301015 -1.42176,1.290027 -1.30612,-0.0092 -1.36306,-0.04072 -1.15786,-0.643448 0.3905,-1.146884 0.49945,-5.290275 0.1507,-5.733391 -0.46902,-0.59603 -1.16334,-0.508144 -1.84274,0.233234 -0.85452,0.932496 -0.87993,4.001593 -0.0417,5.124752 0.47736,0.64018 0.51173,0.819152 0.19657,1.023488 -0.386,0.25023 -0.74912,0.256143 -2.34973,0.0382 z m 9.72114,-0.222481 c -1.32093,-0.704557 -2.02418,-2.122051 -2.00199,-4.035265 0.0324,-2.808914 1.35165,-4.369836 3.67904,-4.353588 1.60235,0.0112 2.78664,0.962582 2.64774,2.127078 -0.12913,1.082351 -1.1087,1.088844 -1.83514,0.0122 -1.16325,-1.724122 -2.72049,-0.918477 -2.73678,1.415907 -0.0117,1.56274 0.30028,2.401994 1.16425,3.139964 0.77455,0.661564 1.57342,0.634512 2.464,-0.08345 0.55938,-0.450971 0.81505,-0.515999 1.05096,-0.267276 0.41205,0.434415 0.003,1.101412 -1.17885,1.926438 -1.08323,0.755614 -1.99584,0.788734 -3.25323,0.118044 z m 7.25282,-0.301574 c -0.6404,-0.531201 -0.69116,-0.759522 -0.75972,-3.417104 -0.0598,-2.312461 -0.16238,-2.916338 -0.54627,-3.212119 -0.62973,-0.485181 -0.62189,-0.51621 0.52073,-2.057541 1.21773,-1.642655 1.40991,-1.727923 1.61633,-0.717183 0.28618,1.401078 0.33747,1.465157 1.25103,1.562825 0.68801,0.07354 0.89676,0.227875 0.89373,0.660704 -0.004,0.430283 -0.23051,0.596785 -0.95556,0.699299 l -0.95159,0.134555 -0.0965,2.258422 c -0.0854,1.991974 -0.032,2.314083 0.45529,2.730276 0.30354,0.259536 0.78341,0.41066 1.06641,0.335834 0.81135,-0.214521 1.01466,0.501136 0.30881,1.086999 -0.80984,0.672166 -1.9457,0.645833 -2.80258,-0.06496 z m 14.38508,0.458347 c -0.80707,-0.09304 -1.0875,-0.276716 -1.29118,-0.846013 -0.30056,-0.840021 -0.085,-1.780946 0.40724,-1.777509 0.18592,0.0013 0.60646,0.385472 0.93453,0.853694 0.92887,1.325678 2.89841,1.11169 2.71705,-0.295209 -0.0696,-0.539058 -0.40754,-0.795015 -1.68352,-1.274783 -0.87809,-0.330177 -1.76072,-0.837224 -1.96136,-1.126771 -0.61433,-0.88656 -0.44476,-2.605645 0.33601,-3.406106 0.6106,-0.625993 0.86009,-0.688834 2.27943,-0.574111 1.95642,0.158144 2.20246,0.308172 2.19525,1.338736 -0.008,1.158894 -0.47798,1.305945 -1.35203,0.423114 -0.53856,-0.543971 -0.98057,-0.738905 -1.53502,-0.676933 -1.25339,0.140105 -1.03528,1.077582 0.43131,1.853865 0.6698,0.354514 1.36169,0.646894 1.53757,0.649722 0.58699,0.009 1.43539,1.478226 1.42845,2.47298 -0.004,0.697754 -0.23239,1.203226 -0.80648,1.791806 -0.82134,0.842045 -1.09399,0.886542 -3.63725,0.593518 z m -8.61207,-0.649017 c -0.51579,-0.440424 -0.63457,-0.913333 -0.79933,-3.182439 -0.10638,-1.465838 -0.27654,-3.012871 -0.37802,-3.437855 -0.15891,-0.665359 -0.0812,-0.812764 0.56027,-1.061106 1.24758,-0.483102 1.49154,0.0056 1.47098,2.947996 -0.0243,3.503995 0.76433,4.711299 2.14998,3.290709 0.43421,-0.445171 0.54979,-0.937454 0.55987,-2.384951 0.0118,-1.593609 -0.0745,-1.909169 -0.67703,-2.498309 -0.59345,-0.580144 -0.63379,-0.721952 -0.28876,-1.015464 0.6349,-0.540126 2.36933,-0.730442 2.62797,-0.288357 0.12125,0.207301 0.14711,1.625411 0.0574,3.151348 -0.13523,2.299494 -0.0858,2.899195 0.28909,3.503217 0.24874,0.400834 0.3844,0.908655 0.30151,1.128491 -0.18365,0.48709 -1.82871,0.525878 -2.2766,0.05372 -0.24189,-0.255037 -0.48112,-0.256705 -1.01771,-0.0072 -1.00013,0.465228 -1.88052,0.39703 -2.57957,-0.199843 z m 52.54399,0.284722 c -0.11286,-0.193003 -0.58147,-0.250827 -1.21532,-0.149979 l -1.03157,0.164091 -0.26015,-1.314738 c -0.14317,-0.723105 -0.1957,-1.485781 -0.1168,-1.694825 0.22652,-0.600775 0.77545,-0.440198 1.17157,0.342715 0.50835,1.004647 1.9006,1.839126 3.08225,1.847376 1.28445,0.0088 2.4655,-1.085197 2.19837,-2.036654 -0.26219,-0.933892 -0.59118,-1.190936 -2.82429,-2.206789 -2.26244,-1.029186 -2.85105,-1.484902 -3.41904,-2.647073 -0.53542,-1.09558 -0.21419,-3.067921 0.63251,-3.883414 0.6628,-0.63837 0.91984,-0.667395 4.63705,-0.52362 l 1.39348,0.05388 0.17011,1.159782 c 0.22295,1.520098 -0.13164,1.852827 -1.13814,1.067946 -1.77459,-1.383832 -4.40628,-1.334106 -4.41618,0.08343 -0.008,0.959966 0.70771,1.574302 2.95999,2.54534 2.4448,1.054041 3.25891,2.016076 3.23315,3.82066 -0.022,1.565913 -0.43713,2.425467 -1.52465,3.159703 -0.88476,0.597319 -3.22473,0.737866 -3.53229,0.212146 z m -108.26115,-5.07941 c -0.21042,-0.221833 -0.73704,-0.447895 -1.17027,-0.502341 -0.64911,-0.08162 -0.80261,-0.248159 -0.8724,-0.946768 -0.0466,-0.466262 -0.28512,-1.083007 -0.53007,-1.370542 -0.41604,-0.488387 -0.40963,-0.549621 0.097,-0.930503 0.30928,-0.232458 0.54476,-0.73574 0.5478,-1.170814 0.004,-0.626531 0.14199,-0.778428 0.76893,-0.848736 0.41994,-0.04711 0.83182,-0.266603 0.91521,-0.487787 0.19936,-0.528737 0.88411,-0.51103 1.07877,0.02788 0.0932,0.258251 0.50309,0.427087 1.04586,0.430879 0.90771,0.0064 1.3326,0.501933 1.05699,1.232879 -0.0784,0.207537 0.0453,0.541646 0.27497,0.742458 0.50504,0.441952 0.52894,0.910288 0.0706,1.382371 -0.18811,0.193731 -0.34438,0.694583 -0.3473,1.113005 -0.004,0.614885 -0.14482,0.776547 -0.73296,0.843052 -0.40019,0.0452 -0.87506,0.264318 -1.05523,0.486806 -0.41144,0.508091 -0.66475,0.507673 -1.14805,-0.002 z M 44.1813,55.143913 c -0.09433,-0.261199 -0.103992,-0.544135 -0.02145,-0.628757 0.08255,-0.08464 4.834555,-0.168417 10.560044,-0.186219 5.725488,-0.01779 13.46605,-0.0853 17.201247,-0.149955 3.735195,-0.06467 15.958366,-0.116803 27.162597,-0.115758 11.204219,0.001 21.838079,-0.0014 23.630799,-0.0054 1.79271,-0.004 8.75931,0.05097 15.48136,0.121931 11.74245,0.124059 21.56339,0.112093 45.63219,-0.05561 6.12526,-0.04267 20.48741,-0.09293 31.9159,-0.111674 11.42844,-0.01875 22.00137,-0.04878 23.4954,-0.06676 3.21521,-0.03867 17.77698,-0.07036 18.26657,-0.03978 0.18667,0.01165 0.3376,0.275355 0.33543,0.585965 -0.003,0.31061 -0.1567,0.573395 -0.34359,0.583969 -2.00909,0.113719 -6.73801,0.182785 -17.72487,0.258878 -7.17108,0.04965 -16.52202,0.122157 -20.7799,0.161136 -8.10189,0.07413 -29.10455,0.0995 -67.49762,0.08145 -12.5487,-0.0059 -26.11625,0.03029 -30.15016,0.08039 -4.03384,0.0501 -23.007375,0.06186 -42.16335,0.0261 -32.441036,-0.06052 -34.84082,-0.09757 -35.000589,-0.53991 z m 71.06521,-3.241185 c -2.45046,-2.416513 -2.80054,-3.625652 -1.58572,-5.477085 0.25362,-0.386514 0.62067,-1.110412 0.81571,-1.608663 0.71517,-1.827198 1.03167,-1.801305 2.76175,0.225962 2.39372,2.804893 2.42232,2.966715 1.02635,5.804965 -0.64356,1.308445 -1.28458,2.378193 -1.42451,2.377213 -0.13993,-9.55e-4 -0.85704,-0.596055 -1.59358,-1.322392 z m 51.39009,0.169482 c -0.14817,-0.188275 -0.25893,-1.835918 -0.24618,-3.66142 l 0.0234,-3.319105 0.8337,-0.440741 c 0.5964,-0.315296 1.38356,-0.409136 2.76548,-0.329698 l 1.93179,0.111039 0.004,-0.847121 0.004,-0.847121 -14.12368,-0.06435 c -23.17032,-0.105635 -41.4454,-0.09843 -43.25238,0.01708 l -1.69642,0.108445 -1.13884,1.802584 c -0.62633,0.991421 -1.3244,1.801287 -1.55123,1.799704 -0.22684,-0.0016 -1.24832,-0.898234 -2.26996,-1.992555 -1.64493,-1.761991 -1.97413,-1.990491 -2.8767,-1.996792 -1.336,-0.0092 -1.67381,0.389005 -1.68497,1.986847 -0.004,0.726448 -0.16288,1.445 -0.35066,1.596785 -0.44053,0.356041 -5.124152,0.654627 -5.579712,0.355712 -0.189896,-0.125229 -0.443363,-0.899281 -0.56231,-1.720127 -0.119899,-0.820841 -0.361702,-1.586694 -0.538266,-1.701899 -0.176574,-0.115196 -2.788812,-0.294293 -5.804976,-0.397973 -5.662992,-0.194657 -9.955268,-0.197778 -31.349852,-0.02278 -13.565148,0.110966 -15.557008,0.0066 -15.551275,-0.814578 0.0029,-0.424602 0.234028,-0.502496 1.429358,-0.481853 0.784204,0.01351 7.599033,-0.07452 15.144065,-0.195689 7.545033,-0.121169 18.701113,-0.245794 24.791293,-0.276952 6.090174,-0.03116 11.19391,-0.133114 11.341624,-0.226581 0.147717,-0.09346 0.270254,-0.409076 0.272294,-0.701353 0.0052,-0.752559 0.201634,-0.816657 2.609995,-0.851907 3.037812,-0.04446 3.925022,-0.623416 2.309072,-1.506789 -1.00614,-0.550011 -1.853233,-0.557995 -3.094305,-0.0291 -0.914902,0.389854 -0.995054,0.381462 -1.254535,-0.131381 -0.15247,-0.301322 -0.268396,-1.809558 -0.25763,-3.351643 0.01844,-2.647566 0.05953,-2.844681 0.735451,-3.537723 l 0.715881,-0.733929 -0.766525,-0.309192 c -0.420643,-0.170092 -2.78658,-0.344631 -5.256695,-0.387899 -6.484391,-0.113587 -40.033579,0.120132 -40.296294,0.280725 -0.121916,0.07454 -1.99122,0.114007 -4.154004,0.08774 -3.39569,-0.04125 -3.955954,0.0149 -4.105423,0.411307 -0.242101,0.642087 0.854836,1.507818 1.919917,1.515255 0.474705,0.0033 1.343405,-0.244276 1.930448,-0.550206 0.587043,-0.305926 1.169973,-0.448035 1.2954,-0.315805 0.125427,0.132237 0.284418,1.881409 0.353316,3.887049 0.112407,3.272456 0.07312,3.712033 -0.382915,4.284174 -0.739642,0.927948 -2.206296,1.074656 -3.708694,0.370979 -2.023517,-0.947756 -2.089852,-1.235171 -2.355488,-10.205363 -0.22887,-7.728734 -0.225101,-7.822539 0.361463,-8.99708 1.025222,-2.052913 3.953594,-3.029036 5.096508,-1.698838 0.424652,0.494238 0.538405,1.214097 0.658917,4.169804 0.08247,2.022849 0.03744,3.711467 -0.103814,3.892951 -0.183885,0.236255 -0.578167,0.18813 -1.499846,-0.183066 -1.985101,-0.799463 -3.726023,-0.194346 -3.560071,1.237425 0.06425,0.554312 0.233381,0.564471 8.757561,0.525987 4.780627,-0.02158 10.036825,-0.07748 11.68044,-0.124162 8.971793,-0.254971 19.473792,-0.269801 65.732177,-0.0928 27.93514,0.106918 55.80262,0.180766 61.92772,0.164185 6.12512,-0.01659 20.42592,-0.03618 31.7796,-0.04354 11.35367,-0.0074 23.60741,-0.06146 27.23054,-0.120227 l 6.5875,-0.106847 -0.004,0.683333 -0.004,0.683331 -6.85922,0.123054 c -3.77256,0.06767 -14.19301,0.138903 -23.15652,0.158272 -8.96353,0.01934 -19.2312,0.0922 -22.81704,0.161787 -3.58585,0.06963 -6.70297,0.115278 -6.92698,0.10141 -1.82959,-0.113264 -35.54812,-0.278392 -50.24758,-0.246069 -10.08396,0.0222 -18.45671,0.04031 -18.60609,0.04027 -0.14938,5.6e-5 -4.67163,-0.03105 -10.04941,-0.06876 -12.41342,-0.08752 -16.66747,-0.0012 -17.52182,0.355371 -0.37457,0.15633 -0.5377,0.293289 -0.36248,0.304356 0.17519,0.01104 0.68562,0.3458 1.13429,0.743854 0.93273,0.827521 1.01759,1.288263 1.19152,6.467853 0.0775,2.306201 0.22265,3.439564 0.46121,3.599328 0.19153,0.128262 0.86444,0.238739 1.49537,0.245522 1.13243,0.01236 1.164,-0.01479 2.45919,-2.095857 0.72163,-1.159505 1.44463,-2.107514 1.6067,-2.106683 0.16206,8.17e-4 1.12807,1.030922 2.14669,2.289102 1.47183,1.817921 1.96868,2.25803 2.42004,2.143618 0.31239,-0.0792 13.42237,-0.07249 29.13332,0.0148 20.97037,0.1166 28.63333,0.07387 28.82102,-0.160606 0.14061,-0.17565 0.30008,-0.626784 0.35437,-1.002524 0.14713,-1.018354 0.68346,-1.013669 0.87255,0.0074 0.13989,0.75572 0.22893,0.840072 0.57548,0.545246 0.58732,-0.499619 0.51292,-1.480747 -0.15819,-2.0866 -0.54125,-0.488613 -0.56674,-0.709649 -0.41495,-3.596287 0.0888,-1.691619 0.30219,-3.249107 0.47384,-3.46108 0.59641,-0.736521 2.5013,-1.07702 3.69439,-0.660372 0.95957,0.335094 1.09981,0.502378 1.26401,1.507747 0.10156,0.621961 0.18275,2.655715 0.18039,4.51945 -0.007,5.015876 -0.1938,4.724373 2.93624,4.566576 1.43711,-0.07244 5.45766,-0.116172 8.93458,-0.09714 l 6.32165,0.03459 0.1676,-0.839575 c 0.18926,-0.948007 0.60814,-1.084338 3.63286,-1.182353 1.31847,-0.04273 1.78167,-0.163839 1.83644,-0.480198 0.17291,-0.998752 -0.38181,-1.273968 -2.55869,-1.26947 -1.21478,0.0026 -2.19886,-0.124547 -2.31223,-0.298533 -0.10857,-0.166585 -0.19119,-1.469634 -0.18353,-2.895648 0.0135,-2.583403 0.018,-2.594993 0.86687,-3.214996 1.09108,-0.795998 3.00657,-0.802681 4.01167,-0.014 0.60098,0.471558 0.72707,0.838152 0.86052,2.501796 0.0859,1.072099 0.16344,3.1092 0.17211,4.526887 0.0186,3.022658 0.23038,3.367137 1.8985,3.086125 0.97682,-0.164553 1.2242,-0.388207 2.35386,-2.127941 0.69428,-1.06923 1.4119,-1.943013 1.5947,-1.941736 0.18284,0.0013 1.01535,0.877907 1.85008,1.948067 l 1.5177,1.945745 14.34459,0.0069 c 17.06306,0.0082 25.81955,-0.09742 28.63674,-0.345191 l 2.06814,-0.181925 0.13239,0.748985 c 0.0729,0.411941 -0.004,0.840242 -0.17219,0.951784 -0.16749,0.11153 -2.81013,0.193414 -5.87253,0.181949 -5.93365,-0.02223 -26.59381,0.170121 -33.81863,0.314834 -2.39057,0.04789 -4.56286,0.09001 -4.82734,0.09361 -0.29172,0.004 -0.97009,0.780728 -1.72457,1.974594 -0.68403,1.082414 -1.34303,1.967332 -1.46443,1.966485 -0.12144,-8.88e-4 -1.00925,-0.896567 -1.97295,-1.990485 -1.59704,-1.812823 -1.84687,-1.9896 -2.82141,-1.996404 -1.41322,-0.01 -1.72379,0.373976 -1.73617,2.145594 -0.004,0.813951 -0.10676,1.540964 -0.22477,1.615588 -0.34106,0.215788 -5.46284,0.265208 -5.66254,0.05465 -0.0992,-0.104638 -0.24816,-0.986965 -0.33091,-1.960728 l -0.15041,-1.770477 -8.41953,-0.08937 c -4.63074,-0.04913 -8.68911,0.01226 -9.01858,0.136434 -0.39245,0.147914 -0.70375,0.618848 -0.90274,1.365598 -0.24126,0.905362 -0.43007,1.138942 -0.91795,1.135535 -0.33783,-0.0024 -0.76489,0.150151 -0.94899,0.338916 -0.18411,0.188764 -0.79039,0.365126 -1.34724,0.391916 -0.55686,0.0268 -1.44102,0.156907 -1.96483,0.289157 l -0.95237,0.240443 -0.0198,2.810689 -0.0198,2.810683 -2.03638,-0.108205 c -1.12001,-0.05949 -2.36392,0.02019 -2.76429,0.177187 -0.53104,0.208219 -0.80072,0.192825 -0.99726,-0.05692 z m 9.28848,-13.283157 c 0.17276,-0.985657 0.91665,-1.103887 1.038,-0.164974 0.10943,0.846801 0.72153,0.642653 0.72771,-0.242713 0.008,-0.897509 -1.27138,-1.587419 -2.27491,-1.228425 -0.81583,0.291849 -0.98002,0.821899 -0.59112,1.908714 0.34518,0.964739 0.90788,0.82533 1.10032,-0.272602 z m 39.52634,13.629158 c -1.05983,-0.851026 -2.93143,-3.481132 -2.92702,-4.113234 0.004,-0.666977 1.65709,-4.060899 2.33491,-4.795669 0.28219,-0.305887 0.62946,-0.03392 1.92939,1.510985 0.8719,1.036209 1.68221,2.104455 1.80071,2.373889 0.34247,0.778748 -1.85004,5.428212 -2.53941,5.385074 -0.0889,-0.0057 -0.35822,-0.168029 -0.59858,-0.361045 z m -94.18924,-2.171652 c -1.35108,-1.81189 1.05375,-3.910109 2.66627,-2.326298 0.73637,0.72326 0.75057,1.795587 0.0336,2.530712 -0.78967,0.809597 -2.0127,0.716994 -2.69979,-0.204413 z m 99.7114,0.431281 c -0.86249,-0.637316 -0.71303,-2.250439 0.27847,-3.005675 0.66764,-0.508554 0.76844,-0.514494 1.54319,-0.09098 0.45589,0.249214 0.90323,0.702825 0.99406,1.008022 0.22755,0.764435 -0.53498,2.16398 -1.29058,2.36874 -0.84862,0.229973 -0.83031,0.233339 -1.52514,-0.280116 z M 61.865553,38.479384 c -0.360194,-0.711877 -0.345032,-5.827582 0.0194,-6.523414 0.366643,-0.700198 1.698902,-1.128822 3.470175,-1.116456 1.27112,0.0088 1.584026,0.126092 2.271581,0.850971 0.796684,0.83993 0.79731,0.843409 0.698915,3.887699 l -0.09848,3.047017 -1.901322,-4.82e-4 c -1.045727,-3.75e-4 -2.412243,0.09496 -3.036696,0.211814 -0.98239,0.18382 -1.174204,0.135719 -1.423503,-0.356995 z M 142.80214,21.049993 c -0.0891,-0.246296 -0.15475,-1.449486 -0.14622,-2.67376 0.0126,-1.977454 -0.0483,-2.262094 -0.55679,-2.549655 -0.49042,-0.277364 -28.02334,-0.426291 -72.895284,-0.394283 -0.597562,7.86e-4 -3.776035,0.0783 -7.06327,0.173039 -3.287241,0.09474 -8.941276,0.236268 -12.564525,0.314498 -6.541869,0.141254 -6.587699,0.138164 -6.58364,-0.443031 0.0031,-0.437618 0.262144,-0.655575 1.026996,-0.863945 0.610455,-0.166307 8.250409,-0.295215 18.947578,-0.319694 9.85857,-0.02251 19.330559,-0.07901 21.048865,-0.125447 1.718309,-0.04643 14.246564,-0.02966 27.84057,0.03721 13.59401,0.06689 26.06139,0.05079 27.70526,-0.0358 l 2.98891,-0.157449 0.15451,-2.678686 c 0.12905,-2.2375327 0.23131,-2.693348 0.62076,-2.7677017 0.53884,-0.1028673 0.65189,0.3212966 0.84724,3.1786017 0.0736,1.076691 0.26363,2.094609 0.4223,2.262043 0.3472,0.36639 -1.55507,0.349707 43.58435,0.382144 40.11077,0.02882 50.64071,-0.01694 50.83971,-0.220945 0.0747,-0.07676 0.16351,-1.134864 0.19699,-2.351346 0.0557,-2.0279576 0.10942,-2.2186013 0.64315,-2.293938 0.54662,-0.077113 0.58734,0.055745 0.66494,2.170682 0.0452,1.239064 0.15964,2.334036 0.25377,2.433272 0.094,0.09924 3.85139,0.209675 8.34951,0.245422 7.87645,0.0627 8.17823,0.08495 8.17459,0.606261 -0.004,0.445013 -0.20909,0.543835 -1.15825,0.555697 -0.63497,0.0079 -1.94918,0.04446 -2.92046,0.08114 -0.97129,0.03674 -4.11609,0.07419 -6.98846,0.08328 -4.39716,0.01398 -5.26011,0.0854 -5.46092,0.452285 -0.13113,0.239658 -0.19654,1.345086 -0.14533,2.456508 0.0988,2.143997 -0.15462,2.916941 -0.86227,2.62888 -0.34282,-0.139553 -0.43057,-0.608483 -0.41918,-2.240336 0.008,-1.421521 -0.11734,-2.262446 -0.4091,-2.702012 l -0.42351,-0.638177 -9.28295,0.08308 c -12.60062,0.112772 -57.59051,0.08297 -72.27048,-0.04786 -8.42955,-0.07518 -12.0315,-0.0144 -12.29215,0.207348 -0.25436,0.216404 -0.37364,1.029396 -0.38476,2.622738 -0.0158,2.255925 -0.25965,2.985153 -0.99672,2.980003 -0.17824,-0.0012 -0.39682,-0.203769 -0.48577,-0.450064 z"
       id="path956" /><path
       style="fill:#000000;stroke-width:0.276942"
       d="M 14.065073,83.313496 C 11.846836,83.01517 7.9250745,81.9413 7.4932809,81.513995 7.0241071,81.049682 6.6932927,79.623379 6.2133333,75.995513 5.9184735,73.766759 6.0638038,73.002768 6.7819109,73.006525 c 0.3670704,0.0019 0.626073,0.404093 0.957996,1.487531 0.8813079,2.876698 1.8213661,4.057245 4.1641801,5.229477 1.177758,0.589318 1.932138,0.756761 3.539006,0.785573 1.88136,0.03374 2.156378,-0.03862 3.492221,-0.919177 1.98911,-1.311147 2.814897,-2.73261 2.994297,-5.154123 0.183859,-2.481764 -0.346668,-3.974374 -2.055983,-5.784409 -1.295693,-1.372042 -2.108006,-1.950791 -6.63888,-4.729972 C 8.7011978,61.140603 6.7941381,58.436019 6.4780875,54.339164 6.123653,49.744772 8.3184305,45.756968 12.34909,43.671861 c 2.649894,-1.370823 10.296646,-0.757868 10.715381,0.858938 0.317884,1.227402 0.429207,6.769605 0.139667,6.953503 -0.499903,0.317521 -0.988375,-0.329704 -1.610598,-2.134066 -0.76754,-2.225757 -1.983541,-3.496779 -3.784814,-3.956055 -2.132584,-0.543766 -3.47332,-0.217956 -5.089917,1.236877 -1.754659,1.579087 -2.117573,2.470591 -1.950589,4.791648 0.237914,3.306922 1.701285,5.059809 6.900653,8.265913 7.79491,4.80659 9.644231,7.197129 9.621247,12.43695 -0.0089,2.012194 -0.117887,2.49146 -0.9982,4.386387 -0.543557,1.170048 -1.380229,2.586564 -1.859269,3.147807 -1.11213,1.302968 -3.380418,2.822134 -4.861983,3.256304 -1.314746,0.385277 -4.100645,0.586368 -5.505595,0.397429 z m 99.333037,0.527113 c -0.0968,-0.101799 0.005,-0.449876 0.22472,-0.773494 0.54976,-0.806874 0.50622,-1.409158 -0.14672,-2.029978 -1.13958,-1.083502 -0.0656,-2.604084 1.21581,-1.721337 0.55527,0.382531 0.70275,0.713247 0.69828,1.566179 -0.008,1.505653 -1.40299,3.577579 -1.99209,2.95863 z m 101.936,-0.971498 c -1e-5,-0.146125 0.124,-0.343609 0.27389,-0.438812 0.41307,-0.262357 0.33244,-1.436282 -0.12625,-1.836158 -0.53917,-0.470197 -0.51696,-1.871366 0.0334,-2.087482 0.82012,-0.322223 1.18893,-0.16116 1.61402,0.704801 0.49988,1.018368 0.33194,2.158705 -0.47299,3.211066 -0.5381,0.703508 -1.32463,0.969227 -1.32192,0.446584 z M 84.596882,81.595129 c -1.710393,-0.542706 -2.694538,-2.214073 -2.684331,-4.558738 0.01237,-2.833596 1.818518,-4.749976 4.05437,-4.301735 1.283405,0.257293 2.568726,1.399263 2.564122,2.278131 -0.003,0.570542 -0.137607,0.680126 -0.831019,0.6765 -0.634896,-0.0033 -0.934091,-0.201612 -1.285711,-0.852097 -0.540923,-1.000702 -1.321762,-1.102839 -2.175482,-0.284555 -0.655198,0.628001 -0.750147,1.538922 -0.328464,3.151245 0.485857,1.857673 2.389374,2.79627 3.66247,1.805902 0.7249,-0.563913 1.209038,-0.52805 1.20581,0.0893 -0.0033,0.632827 -0.968344,1.597518 -1.997346,1.996644 -0.875826,0.339708 -1.112146,0.339646 -2.184422,-5.87e-4 z m -24.00721,-0.292534 c -0.46188,-0.2133 -0.425138,-1.23934 0.0443,-1.236888 0.787402,0.0041 1.58003,-1.02644 1.951748,-2.537655 0.208977,-0.849586 0.737484,-2.995157 1.174459,-4.767948 1.134339,-4.601958 1.991738,-4.932044 3.178935,-1.223847 0.389598,1.216899 1.215392,3.549473 1.835092,5.183484 1.039168,2.740024 1.208432,3.011283 2.178045,3.490188 0.610853,0.301712 0.949929,0.623582 0.809316,0.768237 -0.288681,0.297005 -4.803511,0.405326 -5.233914,0.125587 -0.488074,-0.317232 -0.342901,-0.717022 0.38365,-1.056548 1.511402,-0.706275 0.372301,-2.488123 -1.597205,-2.498435 -1.911324,-0.01004 -2.766173,1.496735 -1.520903,2.680722 0.300807,0.286013 0.451881,0.613334 0.335711,0.727399 -0.276512,0.271518 -3.102216,0.547513 -3.539222,0.345715 z m 5.301879,-5.325121 c 0.23515,-0.626947 -0.403499,-2.722774 -0.789614,-2.591224 -0.389303,0.132639 -0.861495,2.026719 -0.65026,2.608385 0.20254,0.557697 1.228846,0.54548 1.439874,-0.01713 z m 6.990692,5.000011 c -0.09135,-0.155511 0.02577,-0.564395 0.260345,-0.908596 0.607958,-0.892289 0.554989,-3.459046 -0.102937,-4.988391 -0.426828,-0.992159 -0.466954,-1.32364 -0.200247,-1.654179 0.586078,-0.726339 1.573929,-0.952019 2.544554,-0.581307 0.713743,0.272597 0.985339,0.268671 1.322435,-0.01914 0.275446,-0.235161 0.758093,-0.29525 1.376178,-0.171331 1.394881,0.279645 1.823877,1.351712 1.959959,4.897932 0.128679,3.353367 -0.04157,3.74414 -1.627346,3.73584 -0.852258,-0.0045 -1.052641,-0.107471 -1.050377,-0.540047 0.0016,-0.293985 0.186516,-0.606722 0.411062,-0.694949 0.304659,-0.119687 0.41069,-0.623768 0.417823,-1.986339 0.0151,-2.893712 -0.585692,-3.825176 -2.098116,-3.25258 -0.556492,0.210678 -0.603147,0.409318 -0.614708,2.61711 -0.0091,1.747176 0.09637,2.503504 0.392683,2.814824 0.222857,0.234125 0.404484,0.561835 0.403616,0.728239 -0.002,0.387268 -3.167545,0.389962 -3.39491,0.003 z m 18.688866,0.04232 c -0.823995,-0.419388 -0.947723,-0.861854 -1.044454,-3.735039 -0.05447,-1.61884 -0.230011,-2.747572 -0.492831,-3.169469 -0.224507,-0.360392 -0.407641,-0.760116 -0.406972,-0.888274 0.0015,-0.287798 2.014991,-2.60013 2.262957,-2.598833 0.09881,5.83e-4 0.280203,0.413574 0.403105,0.9179 0.189819,0.778936 0.376187,0.943599 1.23812,1.093902 1.856018,0.323652 1.972443,1.380037 0.152302,1.381866 -1.068939,0.0013 -1.347157,0.507846 -1.357444,2.472529 -0.01216,2.326267 0.278085,2.891432 1.488264,2.897768 0.750848,0.0039 0.940491,0.115854 0.938202,0.553672 -0.006,1.147875 -1.827742,1.762883 -3.181254,1.073979 z m 9.859901,-0.04262 c -0.48572,-0.265229 -0.92258,-0.282185 -1.715621,-0.06657 -2.382167,0.647631 -3.196986,-0.311707 -3.374177,-3.972636 -0.08528,-1.762761 -0.237157,-2.471365 -0.626329,-2.923208 -0.505103,-0.586426 -0.504901,-0.603049 0.01236,-0.99174 0.711876,-0.535318 2.222045,-0.504512 2.423221,0.0494 0.08697,0.239599 0.08753,1.351486 0.0012,2.470864 -0.21705,2.81212 0.06061,3.705548 1.189368,3.826438 1.442687,0.154545 1.748527,-0.332106 1.607087,-2.55734 -0.0923,-1.450204 -0.26517,-2.087725 -0.69781,-2.571539 -0.804276,-0.899523 -0.71745,-1.259644 0.35263,-1.462541 1.89105,-0.358564 1.90881,-0.329828 2.11135,3.416217 0.10055,1.862497 0.30545,3.607642 0.455,3.878119 0.1496,0.270475 0.27135,0.605749 0.27066,0.745055 -0.003,0.430015 -1.32139,0.534761 -2.00854,0.159476 z m 4.8582,0.262856 c -1.13792,-0.199205 -1.49081,-0.588026 -1.48532,-1.636671 0.007,-1.31765 0.27051,-1.401135 1.25582,-0.397793 0.65002,0.661921 1.14605,0.903592 1.91427,0.932736 0.93372,0.03539 1.03733,-0.03097 1.04066,-0.666583 0.003,-0.585698 -0.30777,-0.875922 -1.8248,-1.703856 -1.43814,-0.784892 -1.88795,-1.18807 -2.10716,-1.888687 -0.36792,-1.175892 -0.0793,-2.233036 0.80497,-2.948487 0.6296,-0.509403 0.93907,-0.55634 2.48389,-0.376737 1.81785,0.211342 2.15956,0.43796 2.16154,1.433357 0.002,1.162833 -0.55201,1.275135 -1.66306,0.336933 -0.91533,-0.772956 -1.12671,-0.841804 -1.72535,-0.562069 -1.08963,0.50919 -0.82986,1.140262 0.7913,1.92233 2.57752,1.2434 3.5832,3.356529 2.3456,4.928488 -0.51853,0.658585 -2.25451,0.931237 -3.99236,0.627039 z m 52.46966,-1.132539 c -0.22645,-1.474436 -0.20607,-2.917351 0.0407,-2.918849 0.11213,-3.2e-4 0.69402,0.590251 1.29329,1.313168 0.97431,1.17532 1.23606,1.329799 2.4733,1.459939 1.15513,0.12152 1.47908,0.04744 1.96149,-0.448968 1.34521,-1.383932 0.41062,-2.882128 -2.46756,-3.955621 -1.04939,-0.39142 -2.0871,-1.019272 -2.59557,-1.570386 -0.72298,-0.78371 -0.84599,-1.127884 -0.8396,-2.349193 0.0135,-2.549563 1.66592,-3.68277 4.28652,-2.939281 0.89742,0.254596 1.2891,0.252658 1.69583,-0.0084 0.29089,-0.186718 0.60986,-0.254435 0.70882,-0.150481 0.31493,0.330861 0.65612,2.85904 0.41881,3.103184 -0.12545,0.129071 -0.68308,-0.216185 -1.2392,-0.767219 -0.84816,-0.840412 -1.20793,-1.002915 -2.23188,-1.008277 -3.29597,-0.0172 -3.01805,2.248191 0.43361,3.53483 2.91902,1.088095 4.05453,2.315925 4.04377,4.372479 -0.005,0.927861 -0.19364,1.371276 -0.94131,2.210574 -1.00588,1.129145 -0.82144,1.097533 -4.98234,0.85398 -0.41068,-0.02396 -1.00458,0.04505 -1.31982,0.153476 -0.50127,0.172424 -0.59402,0.06138 -0.73932,-0.884975 z m 9.66183,0.795159 c -0.91492,-0.387844 -1.297,-1.473945 -0.88063,-2.503263 0.4805,-1.188005 1.18993,-1.758227 2.6598,-2.138018 1.54004,-0.397909 1.94891,-0.925507 1.50806,-1.945936 -0.3818,-0.883712 -1.14482,-0.944301 -1.8465,-0.146632 -0.70955,0.806493 -1.3569,1.126492 -1.86372,0.921206 -0.61785,-0.250239 -0.51851,-1.09333 0.23495,-1.994373 0.58414,-0.698564 0.83644,-0.783215 2.31114,-0.775496 1.44625,0.0075 1.74948,0.107734 2.39992,0.793008 0.71468,0.752943 0.74097,0.884654 0.65712,3.290036 -0.0878,2.517644 0.10028,3.139628 1.0507,3.474538 0.1828,0.06436 0.24666,0.322626 0.14608,0.590751 -0.1913,0.510037 -1.50724,0.616077 -2.50298,0.20169 -0.31939,-0.132935 -0.97525,-0.0703 -1.59674,0.152671 -1.20282,0.431398 -1.42918,0.439343 -2.2772,0.07989 z m 2.93082,-1.669296 c 0.64314,-0.661683 0.70959,-1.484598 0.15867,-1.964987 -0.31182,-0.271886 -0.56282,-0.23967 -1.21458,0.155911 -1.04679,0.635356 -1.24543,1.177707 -0.67423,1.840857 0.58264,0.67642 1.05008,0.667847 1.73011,-0.03184 z m 5.76384,1.520205 c -1.0054,-0.135081 -1.05403,-0.266402 -0.43516,-1.174723 0.62939,-0.923675 0.42583,-4.585581 -0.30188,-5.43041 -0.5036,-0.58472 -0.50025,-0.601473 0.25274,-1.267793 0.83378,-0.737822 1.53517,-0.85455 2.02739,-0.337415 0.24237,0.254613 0.48159,0.255864 1.01778,0.0054 0.93819,-0.438433 2.05416,-0.393246 2.68535,0.108757 0.41031,0.326298 0.56348,0.977576 0.74582,3.17174 0.12635,1.518601 0.33905,3.129768 0.47284,3.580323 0.33692,1.134862 0.15474,1.300747 -1.4195,1.292505 -1.30616,-0.0069 -1.36314,-0.03836 -1.159,-0.641427 0.38848,-1.147562 0.49023,-5.291135 0.14074,-5.733643 -0.47006,-0.59521 -1.16425,-0.506111 -1.84237,0.23645 -0.85286,0.933989 -0.87291,4.00312 -0.0327,5.124819 0.47845,0.639343 0.5131,0.818258 0.19835,1.023145 -0.38559,0.250901 -0.74869,0.257449 -2.34971,0.0423 z m 9.72077,-0.239442 c -1.32216,-0.702255 -2.0279,-2.118518 -2.00904,-4.031765 0.0276,-2.808969 1.344,-4.372192 3.67143,-4.360006 1.60236,0.0084 2.78831,0.95772 2.65145,2.122456 -0.12723,1.082574 -1.10677,1.090779 -1.8351,0.0154 -1.16628,-1.72209 -2.72211,-0.913729 -2.73431,1.420678 -0.008,1.562758 0.30446,2.401467 1.16973,3.137929 0.77569,0.660206 1.57451,0.63176 2.46383,-0.08775 0.5586,-0.451947 0.81415,-0.517422 1.0505,-0.26911 0.41282,0.433697 0.005,1.101406 -1.17546,1.92849 -1.08195,0.757507 -1.99448,0.792219 -3.25303,0.123731 z m 7.25227,-0.314235 c -0.64132,-0.530085 -0.69246,-0.758316 -0.76568,-3.415771 -0.0638,-2.312353 -0.16748,-2.916051 -0.55185,-3.211161 -0.63062,-0.484082 -0.62279,-0.515126 0.51711,-2.058444 1.21487,-1.644779 1.40689,-1.730386 1.6151,-0.720007 0.2886,1.400579 0.34001,1.464571 1.25371,1.560638 0.68818,0.07234 0.89717,0.226313 0.8949,0.659146 -0.002,0.430296 -0.22947,0.597185 -0.95429,0.700967 l -0.9514,0.136214 -0.0924,2.25859 c -0.0819,1.992115 -0.028,2.314132 0.46006,2.729477 0.30397,0.259004 0.78414,0.409291 1.06699,0.333973 0.81101,-0.215943 1.01555,0.499362 0.31071,1.08646 -0.80865,0.673573 -1.94455,0.649229 -2.80268,-0.06009 z m 14.38587,0.433243 c -0.80725,-0.09163 -1.08799,-0.27482 -1.29265,-0.843761 -0.30207,-0.839494 -0.0881,-1.780794 0.40413,-1.778216 0.18592,9.76e-4 0.60711,0.384414 0.93602,0.852062 0.93121,1.324055 2.90035,1.106629 2.71651,-0.299952 -0.0707,-0.538934 -0.40891,-0.7943 -1.68574,-1.271838 -0.87867,-0.328646 -1.76217,-0.83415 -1.9633,-1.12335 -0.6159,-0.885485 -0.44931,-2.604866 0.33006,-3.406689 0.60947,-0.627055 0.85888,-0.690332 2.2784,-0.578084 1.95673,0.154725 2.20297,0.304321 2.19758,1.334896 -0.006,1.158908 -0.47568,1.306781 -1.35127,0.425476 -0.53951,-0.543025 -0.98187,-0.737192 -1.53622,-0.674248 -1.25312,0.14229 -1.03336,1.079383 0.43457,1.853105 0.67041,0.353343 1.36281,0.644513 1.5387,0.647034 0.58699,0.008 1.43797,1.475726 1.43275,2.470485 -0.004,0.697755 -0.23027,1.203635 -0.80333,1.793211 -0.81987,0.843477 -1.09245,0.88845 -3.63621,0.599869 z m -8.61321,-0.633997 c -0.51657,-0.439523 -0.63616,-0.912226 -0.80483,-3.181039 -0.10894,-1.465649 -0.28186,-3.012384 -0.38408,-3.437185 -0.16006,-0.665088 -0.0826,-0.812624 0.55843,-1.062086 1.24673,-0.485282 1.49155,0.003 1.47613,2.945423 -0.0182,3.504033 0.77253,4.709956 2.15568,3.286954 0.43348,-0.445928 0.5482,-0.938411 0.55576,-2.385927 0.009,-1.593629 -0.0778,-1.909035 -0.68144,-2.497122 -0.59444,-0.579111 -0.63499,-0.720846 -0.29052,-1.014959 0.63397,-0.541235 2.36808,-0.734573 2.62748,-0.292946 0.12161,0.207093 0.14999,1.625154 0.0629,3.151245 -0.13121,2.299727 -0.0807,2.899342 0.29523,3.502706 0.24946,0.400402 0.38602,0.907984 0.30345,1.127966 -0.18277,0.487409 -1.82776,0.52907 -2.27647,0.05769 -0.24236,-0.254614 -0.48159,-0.255861 -1.01775,-0.0054 -0.99929,0.466973 -1.87981,0.400312 -2.57991,-0.19534 z m 52.54445,0.193017 c -0.11324,-0.192809 -0.58197,-0.249814 -1.21563,-0.147859 l -1.03125,0.165892 -0.26246,-1.314283 c -0.14444,-0.722856 -0.19827,-1.485437 -0.11975,-1.694621 0.22546,-0.601167 0.77468,-0.441549 1.17217,0.340674 0.51008,1.003757 1.9038,1.8358 3.08544,1.841992 1.28451,0.0067 2.46362,-1.089501 2.19483,-2.040488 -0.26382,-0.933436 -0.59327,-1.1899 -2.82813,-2.201859 -2.26423,-1.025234 -2.85365,-1.479925 -3.42365,-2.641102 -0.53734,-1.094642 -0.21954,-3.06754 0.6257,-3.88451 0.6617,-0.639524 0.9187,-0.669002 4.63615,-0.531711 l 1.39358,0.05145 0.17214,1.159482 c 0.22558,1.519708 -0.12843,1.853055 -1.1363,1.069936 -1.77699,-1.380733 -4.4086,-1.326417 -4.416,0.09114 -0.005,0.959984 0.71046,1.573062 2.96442,2.540167 2.44663,1.049775 3.26241,2.010385 3.2398,3.815013 -0.0188,1.565952 -0.4329,2.426229 -1.51913,3.162358 -0.88367,0.598865 -3.22342,0.743493 -3.53188,0.218312 z M 144.13565,75.301715 c -0.21083,-0.221467 -0.73785,-0.44661 -1.17116,-0.500297 -0.64925,-0.08051 -0.80305,-0.246763 -0.87405,-0.945242 -0.0474,-0.466183 -0.28702,-1.082511 -0.53247,-1.36962 -0.41689,-0.487658 -0.4106,-0.5489 0.0954,-0.930668 0.30885,-0.232997 0.54344,-0.736692 0.54572,-1.171771 0.003,-0.626533 0.14064,-0.778671 0.76745,-0.850076 0.41987,-0.04784 0.83143,-0.268051 0.91438,-0.48938 0.19843,-0.529087 0.8832,-0.512576 1.07881,0.02602 0.0941,0.258092 0.50385,0.426211 1.04662,0.429056 0.9077,0.0048 1.33349,0.499605 1.05915,1.231031 -0.078,0.207675 0.0463,0.541557 0.27624,0.741977 0.50581,0.441068 0.53054,0.909366 0.073,1.382247 -0.18777,0.194058 -0.34315,0.69518 -0.34533,1.113604 -0.003,0.614895 -0.14342,0.776802 -0.7315,0.844334 -0.40013,0.0459 -0.87461,0.265843 -1.05437,0.488644 -0.41056,0.508811 -0.66386,0.508834 -1.14804,4e-6 z M 44.197152,55.296831 c -0.0948,-0.261028 -0.104941,-0.54395 -0.02255,-0.628715 0.0824,-0.08478 4.834255,-0.176854 10.559704,-0.204652 5.725446,-0.02778 13.465879,-0.108782 17.20096,-0.179976 3.735075,-0.07119 15.958137,-0.144616 27.162351,-0.163156 11.2042,-0.01855 21.83808,-0.03951 23.63076,-0.04664 1.79267,-0.0071 8.75937,0.03568 15.48153,0.09491 11.74268,0.103596 21.56356,0.07447 45.63201,-0.135254 6.12519,-0.05336 20.48725,-0.128687 31.91569,-0.167377 11.42839,-0.0387 22.00122,-0.08719 23.49523,-0.107767 3.21517,-0.04428 17.77686,-0.101387 18.26646,-0.07166 0.18672,0.01134 0.33811,0.274762 0.33649,0.585377 -0.002,0.310619 -0.15572,0.57367 -0.3426,0.584568 -2.0089,0.117222 -6.73766,0.194543 -17.72438,0.289814 -7.17101,0.06217 -16.52178,0.151013 -20.7796,0.197415 -8.10172,0.08827 -29.10428,0.150297 -67.49735,0.199245 -12.54868,0.016 -26.11617,0.07587 -30.14998,0.133012 -4.03379,0.05714 -23.007233,0.102015 -42.163244,0.09969 C 46.757543,55.771801 44.357702,55.73893 44.19716,55.29686 Z m 71.059438,-3.365208 c -2.45469,-2.412233 -2.80685,-3.620762 -1.59525,-5.474309 0.25291,-0.386955 0.61875,-1.111495 0.81284,-1.610088 0.71204,-1.828444 1.02857,-1.803102 2.76218,0.221144 2.3986,2.80071 2.4275,2.962478 1.03646,5.803162 -0.64126,1.309568 -1.28043,2.380428 -1.42037,2.379699 -0.13991,-7.12e-4 -0.85807,-0.594558 -1.59586,-1.319608 z m 51.39032,0.07979 c -0.14851,-0.188016 -0.26214,-1.835462 -0.25258,-3.660982 l 0.0176,-3.319144 0.83297,-0.442197 c 0.59582,-0.316333 1.3828,-0.411549 2.76485,-0.334524 l 1.932,0.107698 0.004,-0.847118 0.004,-0.84711 -14.12377,-0.0397 c -23.17143,-0.06519 -41.44645,-0.0261 -43.25323,0.09257 l -1.69624,0.111405 -1.1357,1.804566 c -0.62463,0.992515 -1.32126,1.803601 -1.5481,1.802411 -0.22682,-0.0012 -1.24988,-0.896054 -2.27342,-1.988592 -1.64799,-1.759118 -1.97759,-1.987043 -2.88016,-1.991767 -1.33605,-0.007 -1.67315,0.391928 -1.68153,1.989785 -0.004,0.726447 -0.16033,1.445281 -0.34786,1.597393 -0.4399,0.356809 -5.122997,0.663573 -5.579079,0.365454 -0.190112,-0.124879 -0.444928,-0.898484 -0.565313,-1.719121 -0.120381,-0.820634 -0.363519,-1.586064 -0.540282,-1.700962 -0.176775,-0.114888 -2.78932,-0.289422 -5.805663,-0.387837 -5.663325,-0.184778 -9.9556,-0.180385 -31.349844,0.03194 -13.56493,0.13464 -15.556976,0.03375 -15.552673,-0.787435 0.0022,-0.424606 0.233151,-0.502905 1.428514,-0.484349 0.784225,0.01214 7.598887,-0.08778 15.143699,-0.222116 7.54481,-0.134335 18.700658,-0.278433 24.790774,-0.32022 6.09011,-0.04179 11.193658,-0.152652 11.341211,-0.246376 0.147557,-0.09373 0.26954,-0.409546 0.271069,-0.701826 0.0039,-0.752568 0.200208,-0.817008 2.608507,-0.856459 3.03772,-0.04976 3.92395,-0.630266 2.30649,-1.510817 -1.00715,-0.548257 -1.854258,-0.554762 -3.094402,-0.0237 -0.914224,0.39145 -0.994389,0.383199 -1.254763,-0.129191 -0.152997,-0.301055 -0.271559,-1.809087 -0.263483,-3.351186 0.01382,-2.647594 0.05454,-2.844785 0.729275,-3.539003 l 0.7146,-0.735178 -0.767061,-0.307854 c -0.421892,-0.169372 -2.788126,-0.339782 -5.258315,-0.37874 -6.484579,-0.102269 -40.033308,0.190004 -40.295748,0.351054 -0.121782,0.07475 -1.991018,0.117482 -4.153841,0.09498 -3.395757,-0.03535 -3.955921,0.0218 -4.104697,0.418474 -0.240981,0.642507 0.857466,1.506323 1.922558,1.511903 0.47471,0.0024 1.342977,-0.246626 1.929485,-0.553578 0.58651,-0.306947 1.169188,-0.45008 1.294848,-0.318061 0.125661,0.13201 0.287698,1.880906 0.360102,3.886419 0.118118,3.272255 0.0796,3.711903 -0.37544,4.284843 -0.738022,0.929235 -2.204417,1.078502 -3.708041,0.377447 -2.025168,-0.944222 -2.092005,-1.231521 -2.373299,-10.201235 -0.242357,-7.728322 -0.238751,-7.822136 0.34576,-8.997698 1.021637,-2.054701 3.948303,-3.035934 5.093535,-1.707731 0.425515,0.493492 0.540527,1.213156 0.666195,4.16865 0.086,2.022701 0.04392,3.711394 -0.09702,3.893124 -0.183472,0.236577 -0.577836,0.189137 -1.500165,-0.180447 -1.986491,-0.795999 -3.726354,-0.187844 -3.557904,1.243637 0.0652,0.554201 0.234368,0.564064 8.758468,0.510702 4.780577,-0.02992 10.036672,-0.09497 11.680199,-0.144548 8.971339,-0.270627 19.473295,-0.303783 65.731913,-0.207524 27.9353,0.05816 55.80285,0.08338 61.92794,0.0561 6.12503,-0.02728 20.42581,-0.07183 31.77945,-0.099 11.35364,-0.02722 23.60726,-0.102663 27.23028,-0.167753 l 6.58731,-0.118355 -0.004,0.683331 -0.004,0.683332 -6.85899,0.135025 c -3.77243,0.07429 -14.19274,0.163674 -23.15622,0.198679 -8.96347,0.03498 -19.23101,0.125754 -22.8167,0.20166 -3.58573,0.07589 -6.70277,0.126976 -6.9268,0.113499 -1.82979,-0.110065 -35.54856,-0.216337 -50.24791,-0.15837 -10.08394,0.0398 -18.45665,0.07252 -18.60602,0.07274 -0.14938,3.21e-4 -4.67168,-0.0229 -10.04952,-0.05122 -12.41355,-0.06586 -16.66744,0.02789 -17.52119,0.385952 -0.37429,0.156983 -0.53716,0.294224 -0.36192,0.304986 0.17521,0.01074 0.68623,0.344605 1.1356,0.741876 0.93415,0.825889 1.01982,1.286486 1.20276,6.465761 0.0815,2.306062 0.22868,3.439171 0.46752,3.598521 0.19174,0.12792 0.86482,0.237229 1.49578,0.242908 1.13245,0.01038 1.16401,-0.01682 2.45555,-2.100146 0.71961,-1.160762 1.44095,-2.110032 1.60302,-2.109483 0.16204,6.34e-4 1.12986,1.02895 2.15072,2.285353 1.47497,1.815349 1.97257,2.254592 2.42372,2.139392 0.31225,-0.07975 13.42222,-0.09592 29.1333,-0.03605 20.97059,0.08 28.63342,0.02388 28.82072,-0.210907 0.1403,-0.175895 0.29897,-0.627309 0.35262,-1.00314 0.14536,-1.01861 0.68167,-1.01486 0.87255,0.0059 0.14121,0.75547 0.23039,0.839669 0.57643,0.544237 0.58645,-0.500641 0.51033,-1.481641 -0.16185,-2.086319 -0.54208,-0.48767 -0.56797,-0.70866 -0.42121,-3.59556 0.0859,-1.691771 0.29652,-3.249624 0.4678,-3.461901 0.59512,-0.73756 2.49941,-1.081381 3.69327,-0.666818 0.96012,0.333418 1.10065,0.500457 1.26659,1.505538 0.10265,0.621782 0.18738,2.655392 0.18829,4.519128 0.002,5.015876 -0.18553,4.724707 2.94421,4.561443 1.437,-0.07495 5.45746,-0.125696 8.93438,-0.112744 l 6.32175,0.02356 0.16611,-0.839866 c 0.18758,-0.948337 0.60624,-1.0854 3.63078,-1.188692 1.31839,-0.04503 1.78135,-0.166951 1.8356,-0.483403 0.17117,-0.999056 -0.38404,-1.273298 -2.56092,-1.265002 -1.21478,0.0047 -2.19907,-0.120712 -2.31274,-0.294495 -0.10884,-0.166395 -0.19373,-1.469299 -0.18858,-2.895324 0.009,-2.583424 0.0135,-2.595021 0.86126,-3.216504 1.0897,-0.797902 3.00518,-0.807929 4.01164,-0.021 0.6018,0.470506 0.72853,0.836878 0.86493,2.500289 0.0878,1.071949 0.16883,3.108909 0.17995,4.526576 0.0239,3.022625 0.23627,3.366734 1.9039,3.082811 0.97655,-0.166258 1.22349,-0.390345 2.35013,-2.132042 0.69243,-1.070443 1.40851,-1.945479 1.59132,-1.944521 0.18285,9.81e-4 1.01688,0.876133 1.85349,1.944835 l 1.52108,1.943093 14.34459,-0.01814 c 17.06305,-0.02158 25.81935,-0.142484 28.63608,-0.39517 l 2.06783,-0.185533 0.13368,0.748754 c 0.0736,0.411811 -0.003,0.840239 -0.17053,0.952081 -0.16728,0.111821 -2.80976,0.198316 -5.87219,0.192199 -5.9337,-0.01197 -26.59345,0.216525 -33.81802,0.373858 -2.39052,0.05206 -4.5627,0.09797 -4.82722,0.102056 -0.29167,0.0045 -0.96867,0.782422 -1.72106,1.977597 -0.68217,1.083606 -1.3396,1.969675 -1.46104,1.96904 -0.12143,-5.65e-4 -1.01078,-0.894803 -1.97639,-1.987037 -1.60018,-1.810034 -1.85034,-1.986378 -2.82491,-1.991479 -1.41321,-0.0074 -1.72314,0.376983 -1.73236,2.148624 -0.004,0.813941 -0.10409,1.541147 -0.22204,1.615974 -0.34061,0.216386 -5.46233,0.274744 -5.66239,0.06453 -0.0994,-0.104463 -0.24988,-0.986528 -0.33432,-1.96015 l -0.1535,-1.770209 -8.41968,-0.07467 c -4.63083,-0.04102 -8.68908,0.02743 -9.01833,0.152172 -0.39221,0.148602 -0.70268,0.620077 -0.90038,1.367171 -0.23967,0.905783 -0.42807,1.139695 -0.91594,1.137139 -0.33785,-0.0018 -0.76465,0.151484 -0.94837,0.340573 -0.18383,0.189085 -0.78979,0.366503 -1.34661,0.394264 -0.55679,0.02777 -1.44073,0.159421 -1.96432,0.292583 l -0.95193,0.24211 -0.0149,2.810717 -0.0149,2.810715 -2.03657,-0.104662 c -1.12013,-0.05752 -2.36388,0.02431 -2.76396,0.182012 -0.53071,0.209147 -0.80036,0.194226 -0.99736,-0.05518 z m 9.26529,-13.299346 c 0.17103,-0.985957 0.9147,-1.105486 1.03776,-0.166785 0.1108,0.846605 0.72256,0.641391 0.72722,-0.243986 0.005,-0.897528 -1.27414,-1.585198 -2.27705,-1.224451 -0.81531,0.293273 -0.97859,0.823609 -0.58778,1.909743 0.34687,0.964134 0.90933,0.823741 1.09985,-0.274521 z m 39.55002,13.560148 c -1.06128,-0.849171 -2.93745,-3.476009 -2.93418,-4.108115 0.003,-0.666981 1.65001,-4.063786 2.32657,-4.799743 0.28162,-0.306375 0.62938,-0.03502 1.93201,1.507621 0.87372,1.034684 1.68587,2.101519 1.80486,2.370742 0.34382,0.778145 -1.84057,5.43143 -2.52998,5.389499 -0.0889,-0.0055 -0.35853,-0.167408 -0.59928,-0.360004 z m -94.19285,-2.007218 c -1.35424,-1.809529 1.04692,-3.911941 2.66221,-2.330948 0.73762,0.721971 0.75369,1.794273 0.038,2.530647 -0.78822,0.810975 -2.01143,0.720509 -2.70012,-0.199698 z m 99.712,0.257253 c -0.86359,-0.63581 -0.71697,-2.249192 0.27322,-3.006157 0.66675,-0.50972 0.76753,-0.515834 1.54299,-0.09367 0.45637,0.248418 0.90449,0.701249 0.99587,1.006287 0.22887,0.764037 -0.53122,2.16491 -1.28647,2.370986 -0.84822,0.231459 -0.82988,0.234792 -1.52561,-0.277453 z M 61.852292,38.601466 c -0.361435,-0.711248 -0.355201,-5.826972 0.008,-6.52344 0.36542,-0.700838 1.696926,-1.131782 3.468219,-1.122509 1.271132,0.0066 1.584243,0.12333 2.273061,0.847002 0.798151,0.838539 0.798781,0.842017 0.705702,3.886474 l -0.09316,3.047189 -1.901318,0.0028 c -1.045725,0.0014 -2.412073,0.09916 -3.036322,0.217115 -0.982067,0.185534 -1.173965,0.137764 -1.424123,-0.354511 z M 142.75833,21.030837 c -0.0895,-0.246137 -0.15727,-1.44921 -0.15088,-2.673499 0.0103,-1.977464 -0.0522,-2.262007 -0.56122,-2.548681 -0.49092,-0.276506 -28.02406,-0.377383 -72.895879,-0.267045 -0.597562,0.0018 -3.775892,0.08489 -7.06296,0.185368 -3.287068,0.100467 -8.94085,0.251868 -12.563955,0.336426 -6.541616,0.152665 -6.587449,0.149661 -6.584405,-0.431544 0.0024,-0.437622 0.260999,-0.656028 1.025488,-0.865734 0.610162,-0.167375 8.249881,-0.309614 18.946989,-0.352764 9.858516,-0.03972 19.330393,-0.112748 21.048617,-0.162184 1.718225,-0.04943 14.246489,-0.05452 27.840615,-0.01138 13.59409,0.04316 26.06137,0.0053 27.70515,-0.08415 l 2.9886,-0.162663 0.14986,-2.678952 c 0.12516,-2.2377561 0.22661,-2.6937489 0.61596,-2.7687824 0.53866,-0.1038069 0.65243,0.3201588 0.85277,3.1771144 0.0755,1.076566 0.26733,2.094147 0.42621,2.261305 0.34789,0.365783 -1.55442,0.352422 43.58499,0.306086 40.11075,-0.04119 50.64061,-0.105325 50.83923,-0.309677 0.0746,-0.07689 0.16154,-1.135146 0.1929,-2.351686 0.0522,-2.0280519 0.10555,-2.21879 0.63912,-2.2950568 0.54653,-0.078077 0.58746,0.05472 0.66874,2.1695188 0.0474,1.238982 0.16374,2.333755 0.25802,2.432825 0.0942,0.09905 3.85179,0.202952 8.34996,0.230845 7.87652,0.04895 8.17833,0.07068 8.1756,0.591993 -0.002,0.445025 -0.20814,0.544201 -1.15731,0.557719 -0.6349,0.009 -1.94906,0.04786 -2.92026,0.08624 -0.97123,0.03838 -4.11595,0.08137 -6.98833,0.09548 -4.39708,0.02164 -5.25995,0.09458 -5.46011,0.461813 -0.13072,0.239892 -0.1942,1.34543 -0.14103,2.45676 0.10274,2.143821 -0.14953,2.917211 -0.85765,2.630384 -0.3431,-0.138958 -0.43165,-0.607729 -0.42311,-2.239602 0.007,-1.421522 -0.12129,-2.262237 -0.41384,-2.701295 l -0.42461,-0.637435 -9.28278,0.09928 c -12.60035,0.134764 -57.59029,0.183484 -72.27045,0.07828 -8.42969,-0.06044 -12.03151,0.0066 -12.29179,0.228802 -0.25392,0.216847 -0.3718,1.030046 -0.38015,2.623409 -0.0119,2.255948 -0.25445,2.985602 -0.99153,2.981736 -0.17824,-9.89e-4 -0.3972,-0.203078 -0.48656,-0.449216 z"
       id="path954" /></g></svg>
